<?xml version="1.0" standalone="no"?>
<!DOCTYPE svg PUBLIC "-//W3C//DTD SVG 20010904//EN"
 "http://www.w3.org/TR/2001/REC-SVG-20010904/DTD/svg10.dtd">
<svg version="1.0" xmlns="http://www.w3.org/2000/svg"
 width="700.000000pt" height="700.000000pt" viewBox="0 0 700.000000 700.000000"
 preserveAspectRatio="xMidYMid meet">
<metadata>
Created by potrace 1.14, written by Peter Selinger 2001-2017
</metadata>
<g transform="translate(0.000000,700.000000) scale(0.100000,-0.100000)"
fill="#000000" stroke="none">
<path d="M0 3500 l0 -3500 3500 0 3500 0 0 3500 0 3500 -3500 0 -3500 0 0
-3500z m3764 1817 c230 -48 386 -99 386 -128 0 -19 -25 -19 -1049 -19 l-1050
0 -26 23 c-15 13 -28 37 -32 59 -4 31 -1 41 21 63 l26 26 823 -4 c711 -3 833
-6 901 -20z m776 -317 c33 -33 30 -75 -6 -107 l-25 -23 -1218 0 c-875 0 -1227
3 -1250 11 -53 19 -66 75 -26 114 l24 25 1241 0 c1227 0 1240 0 1260 -20z
m334 -291 c33 -26 36 -79 6 -109 -20 -20 -33 -20 -1430 -20 l-1411 0 -24 25
c-14 13 -25 31 -25 39 0 30 20 67 42 76 14 5 606 9 1419 9 l1396 1 27 -21z
m193 -279 c42 -15 80 -83 64 -116 l-11 -24 -682 3 -683 3 -95 29 c-94 27 -99
28 -370 29 l-275 1 -14 -32 -15 -33 -486 0 c-365 0 -489 3 -498 12 -13 13 -16
96 -4 115 9 14 229 16 2018 21 688 1 1031 -1 1051 -8z m-2088 -316 c12 -15 21
-34 21 -44 0 -10 -9 -29 -21 -44 l-20 -26 -464 0 -464 0 -20 26 c-27 35 -26
59 4 89 l24 25 460 0 460 0 20 -26z m2249 10 c27 -19 30 -78 5 -106 -15 -17
-45 -18 -536 -18 l-521 0 -23 22 c-29 27 -29 57 -2 92 l20 26 518 0 c451 0
519 -2 539 -16z m-2253 -299 c28 -27 30 -42 14 -79 -22 -48 -49 -50 -519 -43
l-435 7 -23 26 c-27 31 -23 69 10 97 19 16 56 17 475 17 l454 0 24 -25z m2332
3 c28 -26 30 -67 4 -99 l-19 -24 -469 -3 c-464 -3 -470 -2 -496 18 -34 27 -37
80 -7 110 19 19 33 20 492 20 471 0 472 0 495 -22z m-2330 -290 c26 -26 22
-86 -6 -109 -22 -18 -48 -19 -466 -19 -266 0 -454 4 -470 10 -52 20 -53 103
-2 128 15 7 170 10 474 9 414 -2 454 -3 470 -19z m2355 5 c23 -21 24 -89 1
-115 -15 -17 -43 -18 -480 -18 -294 0 -471 4 -483 10 -37 20 -34 107 4 132 6
4 220 8 475 8 418 0 466 -2 483 -17z m-2353 -309 c12 -15 21 -34 21 -44 0 -10
-9 -29 -21 -44 l-20 -26 -459 0 c-430 0 -459 1 -481 18 -28 23 -30 73 -4 102
18 19 30 20 481 20 l463 0 20 -26z m2323 9 c24 -22 24 -77 -2 -103 -19 -19
-33 -20 -492 -20 -425 0 -473 2 -490 17 -23 20 -24 80 -1 105 15 17 44 18 491
18 428 0 477 -2 494 -17z m-2298 -295 c23 -33 20 -65 -10 -95 l-25 -25 -737 7
-737 7 -30 24 c-16 13 -50 41 -75 63 l-45 40 822 1 822 0 15 -22z m2214 6 c32
-22 30 -76 -5 -104 -26 -20 -31 -20 -536 -18 l-509 3 -19 24 c-24 30 -24 52 2
85 l20 26 513 0 c447 0 514 -2 534 -16z m-2242 -272 c6 -4 17 -20 25 -37 l14
-30 280 0 c256 1 287 3 361 23 44 12 97 28 117 37 32 13 152 15 936 15 565 0
909 -4 926 -10 37 -14 50 -56 31 -97 -9 -18 -26 -35 -38 -38 -13 -3 -826 -4
-1806 -3 l-1784 3 -19 24 c-22 27 -25 83 -6 100 9 7 91 12 228 14 499 6 725 6
735 -1z m3138 -13 c33 -26 35 -73 4 -106 -20 -21 -29 -23 -135 -23 -100 0
-115 2 -133 20 -30 30 -27 83 6 109 23 18 41 21 129 21 88 0 106 -3 129 -21z
m-1094 -299 c11 -11 20 -33 20 -50 0 -17 -9 -39 -20 -50 -20 -20 -33 -20
-1434 -20 l-1415 0 -75 66 c-42 37 -76 68 -76 70 0 2 670 4 1490 4 1477 0
1490 0 1510 -20z m1100 -290 c30 -30 27 -83 -7 -111 l-28 -21 -1787 4 -1788 5
-42 36 c-24 20 -61 52 -83 71 l-40 35 1878 1 c1864 0 1877 0 1897 -20z m-2086
-276 c9 -3 16 -14 16 -24 0 -20 -17 -27 -145 -59 -182 -45 -274 -53 -672 -58
l-383 -5 -80 71 -80 71 387 3 c214 1 513 3 665 5 152 1 283 -1 292 -4z"/>
</g>
</svg>
