<?xml version="1.0" encoding="utf-8"?>
<!-- Generator: Adobe Illustrator 27.4.1, SVG Export Plug-In . SVG Version: 6.00 Build 0)  -->
<svg version="1.1" xmlns="http://www.w3.org/2000/svg" xmlns:xlink="http://www.w3.org/1999/xlink" x="0px" y="0px"
	 viewBox="0 0 4400 1543.033" enable-background="new 0 0 4400 1543.033" xml:space="preserve">
<g id="bg" display="none">
	<rect x="-0.174" y="-0.379" display="inline" fill="#367AE8" width="4400" height="1543"/>
</g>
<g id="Layer_1">
	<path fill="#FFFFFF" d="M1347.975,372.717c0.136,0.15,0.271,0.3,0.407,0.45c13.335,14.756,2.932,38.323-16.956,38.323H478.048
		c-12.653,0-22.91-10.257-22.91-22.91v-0.449c0-12.653,10.257-22.91,22.91-22.91h852.97
		C1337.473,365.222,1343.642,367.933,1347.975,372.717z M1226.125,274.698H478.055c-12.657,0-22.917,10.26-22.917,22.917v0.434
		c0,12.657,10.26,22.917,22.917,22.917h748.712c22.594,0,31.596-29.299,12.845-41.903c-0.214-0.144-0.429-0.288-0.643-0.432
		C1235.166,276.082,1230.703,274.698,1226.125,274.698z M766.603,491.167c0-5.991,4.856-10.847,10.847-10.847h121.049
		c38.603,0,75.443,7.462,109.03,20.912c1.28,0.512,2.642,0.782,4.02,0.782h399.438c11.621,0,18.959-12.476,13.337-22.647
		c-2.225-4.025-4.499-8.022-6.822-11.99c-4.213-7.196-11.914-11.631-20.252-11.631H465.985c-5.991,0-10.847,4.856-10.847,10.847
		v24.574c0,5.991,4.856,10.847,10.847,10.847h289.771C761.747,502.014,766.603,497.158,766.603,491.167L766.603,491.167z
		 M743.972,546.271H477.769c-12.499,0-22.631,10.132-22.631,22.631l0,0c0,12.499,10.132,22.631,22.631,22.631h266.203
		c12.499,0,22.631-10.132,22.631-22.631l0,0C766.603,556.403,756.471,546.271,743.972,546.271z M1189.221,682.057h273.983
		c14.012,0,24.699-12.561,22.435-26.39c-0.045-0.273-0.089-0.545-0.135-0.818c-1.816-10.988-11.297-19.06-22.434-19.06h-274.129
		c-15.685,0-26.541,15.474-21.424,30.301c0.054,0.156,0.108,0.313,0.161,0.469C1170.847,675.796,1179.456,682.057,1189.221,682.057z
		 M1138.049,591.533h302.267c15.494,0,26.272-15.348,21.083-29.947c-0.057-0.161-0.115-0.322-0.172-0.483
		c-3.174-8.904-11.631-14.832-21.083-14.832h-302.497c-18.985,0-29.332,22.127-17.19,36.722c0.134,0.161,0.268,0.322,0.401,0.484
		C1125.095,588.592,1131.406,591.533,1138.049,591.533z M1181.361,748.658c0,1.929-0.023,3.854-0.067,5.773
		c-0.231,9.953,7.754,18.15,17.71,18.15h275.989c9.679,0,17.527-7.766,17.722-17.444c0.074-3.667,0.112-7.344,0.112-11.028
		c0-0.06,0-0.119,0-0.179c-0.004-9.747-7.976-17.618-17.723-17.618h-276.063c-9.947,0-17.887,8.183-17.715,18.129
		C1181.349,745.845,1181.361,747.25,1181.361,748.658z M743.469,635.789H478.272c-12.776,0-23.134,10.357-23.134,23.134v0
		c0,12.776,10.357,23.134,23.134,23.134h265.198c12.776,0,23.134-10.357,23.134-23.134v0
		C766.603,646.147,756.246,635.789,743.469,635.789z M1461.337,816.838h-272.415c-9.757,0-18.362,6.249-21.536,15.476
		c-0.054,0.157-0.108,0.313-0.162,0.469c-5.133,14.832,5.724,30.323,21.419,30.323h272.543c10.962,0,20.338-7.829,22.355-18.604
		c0.051-0.271,0.101-0.543,0.152-0.814C1486.288,829.724,1475.54,816.838,1461.337,816.838z M896.911,175.599H480.078
		c-13.774,0-24.94,11.166-24.94,24.94l0,0c0,16.515,13.388,29.903,29.903,29.903h629.749c8.346,0,10.512-11.593,2.712-14.563
		C1049.265,189.896,974.828,175.599,896.911,175.599z M1136.904,950.612h300.755c8.89,0,16.868-5.492,20.013-13.808
		c0.058-0.153,0.116-0.307,0.174-0.46c5.282-14.008-5.041-28.983-20.012-28.983h-300.548c-6.366,0-12.409,2.828-16.46,7.738
		c-0.127,0.154-0.254,0.307-0.381,0.46C1108.885,929.512,1118.785,950.612,1136.904,950.612z M455.138,1287.064
		c0,14.115,11.442,25.557,25.557,25.557h416.216c66.436,0,130.341-10.395,190.031-29.564c9.243-2.969,7.112-16.615-2.596-16.615
		H475.76C464.371,1266.442,455.138,1275.675,455.138,1287.064L455.138,1287.064z M743.469,816.838H478.272
		c-12.776,0-23.134,10.357-23.134,23.134l0,0c0,12.776,10.357,23.134,23.134,23.134h265.198c12.776,0,23.134-10.358,23.134-23.134
		l0,0C766.603,827.195,756.246,816.838,743.469,816.838z M743.469,726.313H478.272c-12.777,0-23.134,10.357-23.134,23.134l0,0
		c0,12.777,10.357,23.134,23.134,23.134h265.197c12.777,0,23.134-10.357,23.134-23.134l0,0
		C766.603,736.671,756.246,726.313,743.469,726.313z M1592.955,1017.247L1592.955,1017.247c0-12.247-9.928-22.176-22.176-22.176
		h-139.088c0.035-0.068,0.071-0.135,0.106-0.203h-415.351c-1.577,0-3.133,0.323-4.587,0.934
		c-34.74,14.593-73.092,22.708-113.36,22.708H778.424c-6.529,0-11.821-5.292-11.821-11.821v0c0-6.529-5.293-11.821-11.821-11.821
		H475.599c-11.3,0-20.461,9.161-20.461,20.461v0c0,14.253,11.554,25.807,25.807,25.807h594.496c-0.06,0.067-0.117,0.136-0.177,0.203
		h493.599C1582.168,1041.339,1592.955,1030.553,1592.955,1017.247z M1638.519,1018.205L1638.519,1018.205
		c0,12.777,10.357,23.134,23.134,23.134h51.951c12.777,0,23.134-10.357,23.134-23.134v0c0-12.776-10.357-23.134-23.134-23.134
		h-51.951C1648.876,995.071,1638.519,1005.429,1638.519,1018.205z M506.776,1224.126h3257.833c33.809,0,61.217-10.858,61.217-24.252
		l0,0c0-13.394-27.408-24.252-61.217-24.252H506.776c-33.809,0-61.217,10.858-61.217,24.252l0,0
		C445.559,1213.268,472.967,1224.126,506.776,1224.126z M1395.57,1118.413c7.269-15.204-3.798-32.792-20.65-32.792h-1.669
		c0.06-0.076,0.122-0.152,0.182-0.228H455.138v0.228H328.452c-12.644,0-22.893,10.25-22.893,22.893v0.456
		c0,12.644,10.25,22.893,22.893,22.893h1046.249c8.809,0,16.838-5.054,20.651-12.995
		C1395.425,1118.717,1395.498,1118.565,1395.57,1118.413z M772.708,922.983c0-8.517-6.901-15.423-15.418-15.428l-302.151-0.193
		v0.203H181.013c-8.535,0-15.454,6.919-15.454,15.454v10.474c0,9.567,7.755,17.322,17.322,17.322h571.994
		c9.849,0,17.833-7.984,17.833-17.833V922.983z"/>
	<g id="logo-text">
		<g>
			<path fill="#DDDDDD" d="M1797.672,790.277h226.184v74.065h-142.434v61.531h131.609V998.8h-131.609v61.531h148.701v71.786
				h-232.451V790.277z M2009.043,1116.165v-39.882h-148.701v-93.436h131.609v-41.021h-131.609v-93.436h142.434v-42.16h-184.023
				v309.935H2009.043z M1829.008,1106.479h174.338v2.849h-177.188L1829.008,1106.479z M1826.729,814.206h170.35v2.849h-167.501
				L1826.729,814.206z M1838.123,825.601h158.955v2.849h-156.106L1838.123,825.601z M1840.972,1095.085h162.374v2.849h-165.223
				L1840.972,1095.085z M1849.518,836.996h147.561v2.849h-144.712L1849.518,836.996z M1852.936,1083.689h150.41v2.85h-153.828
				L1852.936,1083.689z M1860.342,949.233h125.912v2.849h-125.912V949.233z M1860.342,960.628h125.912v2.849h-125.912V960.628z
				 M1860.342,972.022h125.912v2.849h-125.912V972.022z"/>
			<path fill="#DDDDDD" d="M2150.333,1031.844c0,19.941,15.952,35.894,35.323,35.894c21.08,0,34.184-11.964,34.184-29.626
				c0-25.638-33.613-33.045-61.531-42.73c-57.543-20.51-89.447-47.287-89.447-105.97c0-60.392,51.846-110.528,116.225-110.528
				c75.775,0,111.668,48.428,116.227,111.668h-78.623c0-19.371-11.965-35.323-35.324-35.323c-18.23,0-35.893,10.824-35.893,33.044
				c0,25.638,31.335,30.196,60.392,38.742c60.961,18.231,89.448,52.415,89.448,105.97c0,60.392-51.276,110.528-115.656,110.528
				c-74.635,0-116.795-50.137-116.795-111.668H2150.333z M2185.656,1127.56c52.985,0,96.285-42.73,96.285-94.576
				c0-57.543-34.184-78.623-86.6-93.436c-33.614-9.686-62.67-17.662-62.67-51.276c0-29.626,22.219-48.997,52.984-48.997
				c35.323,0,47.288,21.08,52.416,35.323h42.729c-3.419-33.614-28.487-79.762-95.146-79.762c-52.984,0-97.424,42.729-97.424,94.575
				c0,42.16,15.952,68.938,78.623,91.157c32.475,11.964,71.786,20.511,71.786,57.543c0,30.195-26.208,45.578-52.985,45.578
				c-29.057-0.569-47.287-17.092-52.416-35.893h-44.438C2089.941,1090.526,2131.531,1127.56,2185.656,1127.56z M2093.93,883.144
				h33.044v2.849h-33.044V883.144z M2093.93,894.539h33.044l0.569,2.849h-33.613V894.539z M2096.209,871.18h33.044l-1.14,3.418
				h-33.045L2096.209,871.18z M2095.068,906.503h34.185l1.14,2.849h-34.754L2095.068,906.503z M2097.918,917.897h38.172l-0.57-0.569
				l3.419,3.418h-40.451L2097.918,917.897z M2099.057,859.785h34.754l-1.709,2.849h-33.614L2099.057,859.785z M2104.754,847.82
				h39.312l-3.988,3.419h-37.033L2104.754,847.82z M2103.615,929.862h46.148l4.557,2.849h-48.996L2103.615,929.862z
				 M2112.16,836.426h50.137l-6.267,2.849h-46.148L2112.16,836.426z M2112.73,941.257h65.52l10.824,2.849h-73.495L2112.73,941.257z
				 M2122.986,825.031h62.67v2.849h-66.089L2122.986,825.031z M2125.834,952.651h89.448l8.546,3.418h-91.727L2125.834,952.651z
				 M2140.078,813.066h45.578v2.85h-50.137L2140.078,813.066z M2239.781,964.616l3.418,2.849h-90.588l-4.558-2.849H2239.781z
				 M2173.691,801.672h11.965v2.849h-25.638L2173.691,801.672z M2255.164,976.011l2.848,3.418h-78.053l-8.546-3.418H2255.164z
				 M2185.656,1092.806h64.949l-2.848,2.849h-62.102V1092.806z M2185.656,1104.2h51.275l-3.987,2.849h-47.288V1104.2z
				 M2185.656,1116.165h29.057l-10.825,2.849h-18.231V1116.165z M2264.85,987.975l1.139,2.849h-55.264l-6.268-2.849H2264.85z
				 M2220.41,1080.841h40.451l-1.709,2.279l-0.57,1.14h-45.009L2220.41,1080.841z M2269.977,999.369l1.14,2.849h-41.591
				l-3.418-2.849H2269.977z M2233.514,1069.446h33.614l-1.709,2.849h-34.754L2233.514,1069.446z M2236.362,1011.334h37.603
				l1.14,2.849h-37.032L2236.362,1011.334z M2240.92,1057.482h31.336l-1.14,3.418h-31.905L2240.92,1057.482z M2242.061,1022.729
				h33.613v2.849h-33.045L2242.061,1022.729z M2243.77,1046.088h31.335l-0.569,2.849h-31.336L2243.77,1046.088z M2244.339,1034.693
				h31.905l-0.57,2.849h-31.335V1034.693z"/>
			<path fill="#DDDDDD" d="M2357.717,790.277h83.751v341.84h-83.751V790.277z M2420.388,1116.165V806.23h-41.591v309.935H2420.388z
				 M2384.494,811.357h30.196v2.849h-30.196V811.357z M2384.494,822.752h30.196v2.849h-30.196V822.752z M2384.494,834.147h30.196
				v2.849h-30.196V834.147z M2384.494,845.542h30.196v2.849h-30.196V845.542z M2384.494,856.937h30.196v2.849h-30.196V856.937z
				 M2384.494,868.331h30.196v2.849h-30.196V868.331z M2384.494,879.726h30.196v2.849h-30.196V879.726z M2384.494,891.12h30.196
				v2.849h-30.196V891.12z M2384.494,902.515h30.196v2.849h-30.196V902.515z M2384.494,913.909h30.196v2.849h-30.196V913.909z
				 M2384.494,925.305h30.196v2.849h-30.196V925.305z M2384.494,936.699h30.196v2.849h-30.196V936.699z M2384.494,948.094h30.196
				v2.849h-30.196V948.094z M2384.494,959.488h30.196v2.849h-30.196V959.488z M2384.494,970.883h30.196v2.849h-30.196V970.883z"/>
			<path fill="#DDDDDD" d="M2679.615,778.883c63.24,0,107.11,23.359,143.003,59.822l-58.112,53.555
				c-23.359-21.08-52.416-34.184-84.891-34.184c-60.961,0-100.272,45.578-100.272,103.121c0,63.24,45.009,103.122,101.982,103.122
				c59.821,0,88.878-33.045,91.157-66.089h-97.425v-72.356h188.012v32.475c0,100.843-59.252,185.163-183.454,185.163
				c-108.249,0-185.162-80.332-185.162-182.314S2571.366,778.883,2679.615,778.883z M2679.615,1127.56
				c109.959,0,162.374-71.217,162.374-165.792v-19.941h-145.852v40.451h99.134c-0.57,46.718-35.323,97.994-115.656,97.994
				c-73.495,0-121.922-52.415-121.922-119.074c0-66.658,48.427-119.074,121.922-119.074c30.196,0,59.822,10.825,83.751,27.348
				l33.045-31.905c-29.627-27.917-67.799-42.729-116.796-42.729c-95.145,0-164.082,73.495-164.082,166.361
				S2584.471,1127.56,2679.615,1127.56z M2521.8,948.663h30.765l-0.568,2.849h-30.766L2521.8,948.663z M2521.23,960.058h30.766
				v2.849h-30.766V960.058z M2521.23,971.452h30.766l0.568,2.849H2521.8L2521.23,971.452z M2522.939,937.269h31.335l-1.14,2.849
				h-30.766L2522.939,937.269z M2522.369,982.848h30.766l1.14,2.849h-31.335L2522.369,982.848z M2524.648,925.874h31.904
				l-1.139,2.849h-31.336L2524.648,925.874z M2524.078,994.242h31.336l1.139,2.849h-31.335L2524.078,994.242z M2526.928,1005.637
				h31.904l1.14,2.849h-32.475L2526.928,1005.637z M2530.346,1017.031h33.045l1.709,2.849h-34.184L2530.346,1017.031z
				 M2534.334,1028.426h35.323l2.278,2.849h-35.893L2534.334,1028.426z M2540.031,1039.82h37.602l2.85,2.849h-38.742
				L2540.031,1039.82z M2546.867,1051.215h41.021l2.849,2.849h-42.16L2546.867,1051.215z M2555.414,1062.609h45.578l3.418,2.849
				h-47.287L2555.414,1062.609z M2620.934,1074.005l5.697,2.849h-58.684l-2.848-2.849H2620.934z M2660.814,1085.399
				c4.558,0.569,12.534,1.14,18.801,1.14c7.977,0,13.104-0.57,18.231-1.14h89.448l-3.418,2.849h-202.256l-3.418-2.849H2660.814z
				 M2773.052,1096.794l-3.988,2.849h-170.92l-3.987-2.849H2773.052z M2751.972,1108.188l-7.406,2.849h-123.062l-7.407-2.849
				H2751.972z M2705.823,1119.583c-4.558,1.14-11.965,1.709-26.208,1.709c-9.115,0-18.801-0.569-26.777-1.709H2705.823z
				 M2703.544,948.663h131.608v2.849h-131.608V948.663z M2703.544,960.058h131.608v2.849h-131.608V960.058z M2703.544,971.452
				h131.608v2.849h-131.608V971.452z M2740.577,1074.005h59.252l-2.849,2.849h-62.101L2740.577,1074.005z M2762.227,1062.609h46.148
				l-2.279,2.849h-48.427L2762.227,1062.609z M2774.761,1051.215h39.882l-2.279,2.849h-40.451L2774.761,1051.215z M2784.446,1039.82
				h35.323l-1.709,2.849h-36.463L2784.446,1039.82z M2790.714,1028.426h34.184l-1.709,2.849h-34.754L2790.714,1028.426z
				 M2795.271,1017.031h32.475l-1.14,2.849h-32.475L2795.271,1017.031z M2799.26,1005.637h31.335l-1.14,2.849h-30.766
				L2799.26,1005.637z M2801.538,994.242h30.766l-0.569,2.849h-31.336L2801.538,994.242z M2802.678,982.848h30.766v2.849h-31.335
				L2802.678,982.848z"/>
			<path fill="#DDDDDD" d="M2917.764,790.277h88.308l132.748,202.825V790.277H3222v341.84h-87.169l-133.317-202.825v202.825h-83.75
				V790.277z M2980.434,1116.165V875.168h8.546l158.956,240.997h52.984V806.23h-41.021v238.147h-10.255L2992.968,806.23h-54.124
				v309.935H2980.434z M2953.656,812.497h35.894l2.278,2.849h-36.463L2953.656,812.497z M2961.633,823.892h35.323l2.279,2.849
				h-35.894L2961.633,823.892z M2969.039,835.286h35.323l2.279,2.849h-35.894L2969.039,835.286z M2977.016,846.681h34.754
				l2.278,2.849h-35.323L2977.016,846.681z M2984.422,858.076h34.754l2.278,2.849h-35.323L2984.422,858.076z M2992.398,869.471
				h34.184l2.279,2.849h-34.754L2992.398,869.471z M2999.805,880.865h34.754l2.278,2.849h-35.323L2999.805,880.865z
				 M3007.211,892.26h34.754l2.279,2.849h-35.324L3007.211,892.26z M3015.188,903.654h34.184l2.279,2.849h-34.754L3015.188,903.654z
				 M3022.594,915.049h34.185l2.278,2.849h-34.754L3022.594,915.049z M3030.001,926.443h34.184l2.279,2.849h-34.754
				L3030.001,926.443z M3037.407,937.838h34.754l2.278,2.85h-35.323L3037.407,937.838z M3044.813,949.233h34.754l2.278,2.849
				h-35.323L3044.813,949.233z M3052.22,960.628h34.754l2.279,2.849h-35.323L3052.22,960.628z M3060.196,972.022h34.184l2.279,2.849
				h-34.754L3060.196,972.022z M3067.603,983.417h34.185l2.278,2.849h-34.753L3067.603,983.417z M3075.01,994.812h34.184
				l2.279,2.849h-34.754L3075.01,994.812z M3082.416,1006.206h34.754l2.278,2.849h-35.323L3082.416,1006.206z M3124.576,1017.601
				l2.279,2.849h-35.324l-1.709-2.849H3124.576z M3131.982,1028.995l2.279,2.849h-34.754l-1.709-2.849H3131.982z M3139.39,1040.391
				l2.278,2.849h-34.754l-1.709-2.849H3139.39z M3147.936,1051.785l2.278,2.849h-35.893l-1.71-2.849H3147.936z M3155.911,1063.18
				l2.849,2.849h-37.032l-1.709-2.849H3155.911z M3164.457,1074.574l2.849,2.849h-38.172l-1.709-2.849H3164.457z M3173.004,1085.969
				l2.278,2.849h-38.741l-1.71-2.849H3173.004z M3181.55,1097.363l2.849,2.849h-39.882l-1.709-2.849H3181.55z M3189.525,1107.619
				l2.849,2.849h-41.59l-1.71-2.849H3189.525z"/>
			<path fill="#DDDDDD" d="M3276.693,790.277h83.75v270.054h148.7v71.786h-232.45V790.277z M3488.063,1116.165v-39.882h-148.7
				V806.23h-41.59v309.935H3488.063z M3308.028,1106.479h174.338v2.849H3305.18L3308.028,1106.479z M3319.992,1095.085h162.374
				v2.849h-165.223L3319.992,1095.085z M3331.957,1083.689h150.409v2.85h-153.828L3331.957,1083.689z"/>
			<path fill="#DDDDDD" d="M3584.916,966.895l-121.353-176.617h94.575l68.368,102.552l68.368-102.552h94.575l-121.353,176.617
				v165.223h-83.182V966.895z M3647.018,1116.165V962.906l107.68-156.676h-46.719l-77.483,114.516h-7.977l-77.483-114.516h-46.718
				l107.679,156.676v153.259H3647.018z M3509.712,812.497h32.475l2.279,2.849h-33.045L3509.712,812.497z M3517.118,823.892h32.475
				l2.279,2.849h-33.045L3517.118,823.892z M3525.095,835.286h32.475l2.279,2.849h-33.045L3525.095,835.286z M3533.07,846.681
				h31.905l2.279,2.849h-32.475L3533.07,846.681z M3540.478,857.506h31.905l2.278,2.849h-32.475L3540.478,857.506z M3548.453,868.9
				h31.336l2.278,2.849h-31.904L3548.453,868.9z M3556.43,880.295h31.335l2.279,2.849h-31.905L3556.43,880.295z M3564.406,891.69
				h30.766l2.278,2.849h-31.335L3564.406,891.69z M3571.812,903.085h31.335l2.279,2.849h-31.335L3571.812,903.085z
				 M3579.789,914.479h30.766l2.278,2.849h-31.335L3579.789,914.479z M3587.195,925.874h31.335l2.279,2.849h-31.335
				L3587.195,925.874z M3595.741,937.269h30.196l2.278,2.849h-30.766L3595.741,937.269z M3603.147,948.663h30.766l2.279,2.849
				h-31.335L3603.147,948.663z M3611.124,960.058h29.057l1.14,2.849h-29.626L3611.124,960.058z M3611.694,971.452h29.626v2.279
				h-29.626V971.452z M3611.694,982.277h29.626v2.849h-29.626V982.277z M3611.694,993.672h29.626v2.849h-29.626V993.672z
				 M3611.694,1005.066h29.626v2.849h-29.626V1005.066z M3611.694,1016.462h29.626v2.849h-29.626V1016.462z M3611.694,1027.856
				h29.626v2.849h-29.626V1027.856z M3611.694,1039.251h29.626v2.849h-29.626V1039.251z M3611.694,1050.646h29.626v2.849h-29.626
				V1050.646z M3611.694,1062.04h29.626v2.849h-29.626V1062.04z M3611.694,1073.435h29.626v2.849h-29.626V1073.435z
				 M3611.694,1084.829h29.626v2.849h-29.626V1084.829z M3611.694,1095.654h29.626v2.849h-29.626V1095.654z M3611.694,1107.049
				h29.626v2.849h-29.626V1107.049z"/>
		</g>
	</g>
</g>
</svg>
